<?xml version="1.0" encoding="UTF-8" standalone="no"?>
<svg xmlns="http://www.w3.org/2000/svg"
    xmlns:xlink="http://www.w3.org/1999/xlink"
    xmlns:serif="http://www.serif.com/" width="100%" height="100%" viewBox="0 0 650 83" version="1.1" xml:space="preserve" style="fill-rule:evenodd;clip-rule:evenodd;stroke-linejoin:round;stroke-miterlimit:2;">
    <g transform="matrix(1,0,0,1,0,-0.495922)">
        <path d="M47.981,35.681L47.981,48.027L59.631,48.027C66.055,48.027 71.262,53.196 71.262,59.579C71.262,65.962 66.041,71.134 59.617,71.134C53.192,71.134 47.979,65.906 47.979,59.525L47.981,24.202C47.981,18.912 46.19,13.574 42.97,9.48C41.751,8.046 42.157,8.076 40.707,9.288C40.673,9.317 40.639,9.348 40.607,9.379L33.901,16.041C32.776,17.16 32.89,16.758 33.675,18.009C34.91,19.976 35.527,22.041 35.527,24.202L35.527,59.579C35.527,72.783 46.324,83.471 59.617,83.471C72.909,83.471 83.697,72.783 83.697,59.579C83.697,46.375 72.909,35.681 59.617,35.681L47.981,35.681Z" style="fill:url(#_Linear1);"></path>
        <g transform="matrix(1,0,0,1,0,0.052794)">
            <path d="M23.953,12.82C26.517,12.82 28.759,13.489 30.677,14.826L39.435,6.071C35.078,2.317 29.918,0.44 23.953,0.44C10.745,0.44 -0,11.19 -0,24.402C-0,37.614 10.745,48.364 23.953,48.364L32.425,48.364L32.425,35.984L23.953,35.984C17.568,35.984 12.375,30.789 12.375,24.402C12.375,18.015 17.568,12.82 23.953,12.82" style="fill:url(#_Linear2);"></path>
        </g>
        <g transform="matrix(1,0,0,1,47.5352,35.4422)">
            <rect x="0.425" y="0.327" width="12.257" height="12.355" style="fill:url(#_Linear3);"></rect>
        </g>
        <g>
            <path d="M325.668,28.167L315.384,28.167L315.384,38.252L324.992,38.252C329.514,38.252 332.402,36.802 332.5,33.387L332.502,33.209L332.502,33.072C332.502,29.938 330.065,28.167 325.668,28.167ZM367.879,37.774C363.689,37.774 360.937,40.736 360.074,45.304L360.03,45.54L375.525,45.54C374.916,40.907 372.21,37.774 367.879,37.774ZM408.603,37.774C404.413,37.774 401.661,40.736 400.797,45.304L400.754,45.54L416.249,45.54C415.641,40.907 412.933,37.774 408.603,37.774ZM327.427,46.971L315.384,46.971L315.384,57.465L327.765,57.465C332.287,57.465 335.045,55.886 335.137,52.468L335.14,52.286L335.139,51.991C335.061,48.882 332.684,46.971 327.427,46.971ZM195.168,38.387C189.361,38.387 185.858,42.832 185.766,48.119L185.765,48.335L185.766,48.683C185.866,53.976 189.696,58.555 195.304,58.555C201.113,58.555 204.615,54.11 204.707,48.822L204.71,48.607L204.707,48.258C204.607,42.965 200.778,38.387 195.168,38.387ZM277.276,38.252C272.536,38.252 268.521,42.096 268.413,48.087L268.411,48.335L268.413,48.715C268.521,54.642 272.536,58.555 277.276,58.555C282.014,58.555 285.962,54.642 286.069,48.715L286.071,48.47L286.071,48.335C286.071,42.271 282.08,38.252 277.276,38.252ZM160.654,66.663L170.938,66.663L170.938,16.923L160.654,16.923L160.654,66.663ZM327.224,18.968C332.637,18.968 336.9,20.467 339.605,23.192C341.705,25.304 342.785,27.865 342.851,30.995L342.855,31.3L342.851,31.722C342.752,36.927 339.952,39.852 336.629,41.726L337.122,41.921C342.23,44.001 345.393,47.134 345.491,53.156L345.494,53.445L345.491,53.841C345.352,62.304 338.489,66.577 328.082,66.662L305.235,66.663L305.235,18.968L327.224,18.968ZM230.057,30.142L230.057,50.515C230.057,55.42 232.358,57.942 236.281,57.942C240.139,57.942 242.626,55.504 242.706,50.758L242.709,50.515L242.709,30.142L252.993,30.142L252.993,66.663L242.709,66.663L242.709,61.485C240.34,64.551 237.296,67.344 232.086,67.344C224.389,67.344 219.87,62.276 219.774,54.054L219.772,53.786L219.772,30.142L230.057,30.142ZM296.219,16.923L296.219,66.663L285.935,66.663L285.935,61.416C283.432,64.823 279.982,67.344 274.637,67.344C266.263,67.344 258.288,60.8 258.129,48.835L258.127,48.47L258.129,47.97C258.285,36.006 266.129,29.461 274.637,29.461C279.801,29.461 283.102,31.699 285.505,34.408L285.65,34.575L285.935,34.912L285.935,16.923L296.219,16.923ZM444.454,29.598C449.056,29.598 454.062,31.165 457.987,33.822L454.062,40.976C450.476,38.863 446.891,37.569 444.252,37.569C441.748,37.569 440.463,38.66 440.463,40.09L440.463,40.226C440.463,42.271 443.914,43.224 447.837,44.586L448.426,44.786L449.028,44.997C453.721,46.672 458.658,49.188 458.796,55.161L458.798,55.557C458.798,63.665 452.777,67.344 444.928,67.344C439.853,67.344 434.171,65.64 429.367,61.826L433.764,55.011C437.688,57.874 441.816,59.371 445.198,59.371C448.176,59.371 449.529,58.282 449.529,56.646L449.529,56.511C449.529,54.304 446.139,53.541 442.24,52.354L441.263,52.057L440.867,51.932C436.177,50.423 431.324,47.938 431.196,41.577L431.193,41.18C431.193,33.753 437.147,29.598 444.454,29.598ZM137.184,18.15C145.976,18.15 151.292,21.056 155.651,25.305L155.857,25.509L149.227,33.209C145.574,29.871 141.852,27.826 137.116,27.826C129.213,27.826 123.497,34.369 123.382,42.431L123.381,42.679L123.382,43.061C123.493,51.127 129.079,57.805 137.116,57.805C142.19,57.805 145.422,55.889 148.871,52.842L149.103,52.637L149.565,52.218L156.197,58.963C151.326,64.211 145.911,67.479 136.778,67.479C122.979,67.479 112.695,56.863 112.491,43.361L112.487,42.952L112.491,42.41C112.691,29.035 122.783,18.15 137.184,18.15ZM195.304,29.461C206.423,29.461 214.691,37.674 214.855,48.02L214.858,48.335L214.855,48.784C214.689,59.133 206.355,67.479 195.168,67.479C184.05,67.479 175.781,59.266 175.617,48.921L175.614,48.607L175.617,48.155C175.783,37.808 184.118,29.461 195.304,29.461ZM367.879,29.461C379.991,29.461 385.539,38.933 385.539,49.288C385.539,49.756 385.518,50.266 385.485,50.797L385.461,51.2L385.404,52.013L360.166,52.013C361.181,56.715 364.43,59.168 369.03,59.168C372.385,59.168 374.844,58.138 377.589,55.638L377.826,55.42L383.713,60.667C380.33,64.892 375.458,67.479 368.895,67.479C358.11,67.479 350.111,59.935 349.953,48.942L349.95,48.607L349.952,48.158C350.097,37.876 357.43,29.461 367.879,29.461ZM408.603,29.461C420.714,29.461 426.263,38.933 426.263,49.288C426.263,49.756 426.24,50.266 426.209,50.797L426.183,51.2L426.126,52.013L400.89,52.013C401.905,56.715 405.153,59.168 409.753,59.168C413.109,59.168 415.567,58.138 418.314,55.638L418.549,55.42L424.436,60.667C421.053,64.892 416.18,67.479 409.618,67.479C398.834,67.479 390.835,59.935 390.676,48.942L390.673,48.607L390.676,48.158C390.821,37.876 398.154,29.461 408.603,29.461Z" style="fill:rgb(30,37,44);"></path>
        </g>
    </g>
    <defs>
        <linearGradient id="_Linear1" x1="0" y1="0" x2="1" y2="0" gradientUnits="userSpaceOnUse" gradientTransform="matrix(17.6074,56.3981,-56.3981,17.6074,46.8752,8.39081)">
            <stop offset="0" style="stop-color:rgb(149,219,255);stop-opacity:1"></stop>
            <stop offset="1" style="stop-color:rgb(40,156,225);stop-opacity:1"></stop>
        </linearGradient>
        <linearGradient id="_Linear2" x1="0" y1="0" x2="1" y2="0" gradientUnits="userSpaceOnUse" gradientTransform="matrix(47.2048,64.4158,-64.4158,47.2048,-10.4672,-16.0522)">
            <stop offset="0" style="stop-color:rgb(40,156,225);stop-opacity:1"></stop>
            <stop offset="1" style="stop-color:rgb(0,106,176);stop-opacity:1"></stop>
        </linearGradient>
        <linearGradient id="_Linear3" x1="0" y1="0" x2="1" y2="0" gradientUnits="userSpaceOnUse" gradientTransform="matrix(12.2574,0,0,12.2574,0.425015,6.5047)">
            <stop offset="0" style="stop-color:rgb(0,106,176);stop-opacity:0.5"></stop>
            <stop offset="1" style="stop-color:rgb(0,106,176);stop-opacity:0"></stop>
        </linearGradient>
    </defs>
</svg>
