<?xml version="1.0" encoding="UTF-8" standalone="no"?>
<svg xmlns="http://www.w3.org/2000/svg" xmlns:xlink="http://www.w3.org/1999/xlink" xmlns:serif="http://www.serif.com/" width="100%" height="100%" viewBox="0 0 950 83" version="1.1" xml:space="preserve" style="fill-rule:evenodd;clip-rule:evenodd;stroke-linejoin:round;stroke-miterlimit:2;">
    <g transform="matrix(1,0,0,1,0,-0.495922)">
        <path d="M47.981,35.681L47.981,48.027L59.631,48.027C66.055,48.027 71.262,53.196 71.262,59.579C71.262,65.962 66.041,71.134 59.617,71.134C53.192,71.134 47.979,65.906 47.979,59.525L47.981,24.202C47.981,18.912 46.19,13.574 42.97,9.48C41.751,8.046 42.157,8.076 40.707,9.288C40.673,9.317 40.639,9.348 40.607,9.379L33.901,16.041C32.776,17.16 32.89,16.758 33.675,18.009C34.91,19.976 35.527,22.041 35.527,24.202L35.527,59.579C35.527,72.783 46.324,83.471 59.617,83.471C72.909,83.471 83.697,72.783 83.697,59.579C83.697,46.375 72.909,35.681 59.617,35.681L47.981,35.681Z" style="fill:url(#_Linear1);"></path>
        <g transform="matrix(1,0,0,1,0,0.052794)">
            <path d="M23.953,12.82C26.517,12.82 28.759,13.489 30.677,14.826L39.435,6.071C35.078,2.317 29.918,0.44 23.953,0.44C10.745,0.44 -0,11.19 -0,24.402C-0,37.614 10.745,48.364 23.953,48.364L32.425,48.364L32.425,35.984L23.953,35.984C17.568,35.984 12.375,30.789 12.375,24.402C12.375,18.015 17.568,12.82 23.953,12.82" style="fill:url(#_Linear2);"></path>
        </g>
        <g transform="matrix(1,0,0,1,47.5352,35.4422)">
            <rect x="0.425" y="0.327" width="12.257" height="12.355" style="fill:url(#_Linear3);"></rect>
        </g>
        <g>
            <path d="M325.668,28.167L315.384,28.167L315.384,38.252L324.992,38.252C329.514,38.252 332.402,36.802 332.5,33.387L332.502,33.209L332.502,33.072C332.502,29.938 330.065,28.167 325.668,28.167ZM367.879,37.774C363.689,37.774 360.937,40.736 360.074,45.304L360.03,45.54L375.525,45.54C374.916,40.907 372.21,37.774 367.879,37.774ZM408.603,37.774C404.413,37.774 401.661,40.736 400.797,45.304L400.754,45.54L416.249,45.54C415.641,40.907 412.933,37.774 408.603,37.774ZM327.427,46.971L315.384,46.971L315.384,57.465L327.765,57.465C332.287,57.465 335.045,55.886 335.137,52.468L335.14,52.286L335.139,51.991C335.061,48.882 332.684,46.971 327.427,46.971ZM195.168,38.387C189.361,38.387 185.858,42.832 185.766,48.119L185.765,48.335L185.766,48.683C185.866,53.976 189.696,58.555 195.304,58.555C201.113,58.555 204.615,54.11 204.707,48.822L204.71,48.607L204.707,48.258C204.607,42.965 200.778,38.387 195.168,38.387ZM277.276,38.252C272.536,38.252 268.521,42.096 268.413,48.087L268.411,48.335L268.413,48.715C268.521,54.642 272.536,58.555 277.276,58.555C282.014,58.555 285.962,54.642 286.069,48.715L286.071,48.47L286.071,48.335C286.071,42.271 282.08,38.252 277.276,38.252ZM160.654,66.663L170.938,66.663L170.938,16.923L160.654,16.923L160.654,66.663ZM327.224,18.968C332.637,18.968 336.9,20.467 339.605,23.192C341.705,25.304 342.785,27.865 342.851,30.995L342.855,31.3L342.851,31.722C342.752,36.927 339.952,39.852 336.629,41.726L337.122,41.921C342.23,44.001 345.393,47.134 345.491,53.156L345.494,53.445L345.491,53.841C345.352,62.304 338.489,66.577 328.082,66.662L305.235,66.663L305.235,18.968L327.224,18.968ZM230.057,30.142L230.057,50.515C230.057,55.42 232.358,57.942 236.281,57.942C240.139,57.942 242.626,55.504 242.706,50.758L242.709,50.515L242.709,30.142L252.993,30.142L252.993,66.663L242.709,66.663L242.709,61.485C240.34,64.551 237.296,67.344 232.086,67.344C224.389,67.344 219.87,62.276 219.774,54.054L219.772,53.786L219.772,30.142L230.057,30.142ZM296.219,16.923L296.219,66.663L285.935,66.663L285.935,61.416C283.432,64.823 279.982,67.344 274.637,67.344C266.263,67.344 258.288,60.8 258.129,48.835L258.127,48.47L258.129,47.97C258.285,36.006 266.129,29.461 274.637,29.461C279.801,29.461 283.102,31.699 285.505,34.408L285.65,34.575L285.935,34.912L285.935,16.923L296.219,16.923ZM444.454,29.598C449.056,29.598 454.062,31.165 457.987,33.822L454.062,40.976C450.476,38.863 446.891,37.569 444.252,37.569C441.748,37.569 440.463,38.66 440.463,40.09L440.463,40.226C440.463,42.271 443.914,43.224 447.837,44.586L448.426,44.786L449.028,44.997C453.721,46.672 458.658,49.188 458.796,55.161L458.798,55.557C458.798,63.665 452.777,67.344 444.928,67.344C439.853,67.344 434.171,65.64 429.367,61.826L433.764,55.011C437.688,57.874 441.816,59.371 445.198,59.371C448.176,59.371 449.529,58.282 449.529,56.646L449.529,56.511C449.529,54.304 446.139,53.541 442.24,52.354L441.263,52.057L440.867,51.932C436.177,50.423 431.324,47.938 431.196,41.577L431.193,41.18C431.193,33.753 437.147,29.598 444.454,29.598ZM137.184,18.15C145.976,18.15 151.292,21.056 155.651,25.305L155.857,25.509L149.227,33.209C145.574,29.871 141.852,27.826 137.116,27.826C129.213,27.826 123.497,34.369 123.382,42.431L123.381,42.679L123.382,43.061C123.493,51.127 129.079,57.805 137.116,57.805C142.19,57.805 145.422,55.889 148.871,52.842L149.103,52.637L149.565,52.218L156.197,58.963C151.326,64.211 145.911,67.479 136.778,67.479C122.979,67.479 112.695,56.863 112.491,43.361L112.487,42.952L112.491,42.41C112.691,29.035 122.783,18.15 137.184,18.15ZM195.304,29.461C206.423,29.461 214.691,37.674 214.855,48.02L214.858,48.335L214.855,48.784C214.689,59.133 206.355,67.479 195.168,67.479C184.05,67.479 175.781,59.266 175.617,48.921L175.614,48.607L175.617,48.155C175.783,37.808 184.118,29.461 195.304,29.461ZM367.879,29.461C379.991,29.461 385.539,38.933 385.539,49.288C385.539,49.756 385.518,50.266 385.485,50.797L385.461,51.2L385.404,52.013L360.166,52.013C361.181,56.715 364.43,59.168 369.03,59.168C372.385,59.168 374.844,58.138 377.589,55.638L377.826,55.42L383.713,60.667C380.33,64.892 375.458,67.479 368.895,67.479C358.11,67.479 350.111,59.935 349.953,48.942L349.95,48.607L349.952,48.158C350.097,37.876 357.43,29.461 367.879,29.461ZM408.603,29.461C420.714,29.461 426.263,38.933 426.263,49.288C426.263,49.756 426.24,50.266 426.209,50.797L426.183,51.2L426.126,52.013L400.89,52.013C401.905,56.715 405.153,59.168 409.753,59.168C413.109,59.168 415.567,58.138 418.314,55.638L418.549,55.42L424.436,60.667C421.053,64.892 416.18,67.479 409.618,67.479C398.834,67.479 390.835,59.935 390.676,48.942L390.673,48.607L390.676,48.158C390.821,37.876 398.154,29.461 408.603,29.461Z" style="fill:rgb(30,37,44);"></path>
        </g>
        <g transform="matrix(5.7647,0,0,5.7647,480.831,66.2866)">
            <g transform="matrix(12,0,0,12,0,0)">
                <path d="M0.701,-0.354C0.701,-0.299 0.692,-0.25 0.676,-0.207C0.66,-0.163 0.637,-0.126 0.607,-0.095C0.577,-0.064 0.542,-0.041 0.501,-0.025C0.459,-0.008 0.413,-0 0.363,-0L0.105,-0L0.105,-0.708L0.363,-0.708C0.413,-0.708 0.459,-0.699 0.501,-0.683C0.542,-0.667 0.577,-0.643 0.607,-0.613C0.637,-0.582 0.66,-0.545 0.676,-0.501C0.692,-0.457 0.701,-0.408 0.701,-0.354ZM0.648,-0.354C0.648,-0.403 0.641,-0.447 0.627,-0.486C0.613,-0.525 0.594,-0.557 0.569,-0.584C0.544,-0.611 0.515,-0.631 0.48,-0.645C0.444,-0.659 0.406,-0.666 0.363,-0.666L0.157,-0.666L0.157,-0.042L0.363,-0.042C0.406,-0.042 0.444,-0.049 0.48,-0.063C0.515,-0.077 0.544,-0.097 0.569,-0.124C0.594,-0.15 0.613,-0.183 0.627,-0.222C0.641,-0.26 0.648,-0.304 0.648,-0.354Z" style="fill:rgb(30,37,44);fill-rule:nonzero;"></path>
            </g>
            <g transform="matrix(12,0,0,12,9.12,0)">
                <path d="M0.271,-0.506C0.306,-0.506 0.338,-0.499 0.366,-0.487C0.394,-0.475 0.418,-0.458 0.438,-0.436C0.457,-0.413 0.472,-0.386 0.482,-0.355C0.492,-0.323 0.497,-0.288 0.497,-0.249C0.497,-0.21 0.492,-0.175 0.482,-0.144C0.472,-0.112 0.457,-0.085 0.438,-0.063C0.418,-0.041 0.394,-0.024 0.366,-0.012C0.338,0.001 0.306,0.007 0.271,0.007C0.235,0.007 0.203,0.001 0.175,-0.012C0.147,-0.024 0.123,-0.041 0.103,-0.063C0.084,-0.085 0.069,-0.112 0.059,-0.144C0.049,-0.175 0.044,-0.21 0.044,-0.249C0.044,-0.288 0.049,-0.323 0.059,-0.355C0.069,-0.386 0.084,-0.413 0.103,-0.436C0.123,-0.458 0.147,-0.475 0.175,-0.487C0.203,-0.499 0.235,-0.506 0.271,-0.506ZM0.271,-0.031C0.3,-0.031 0.326,-0.036 0.348,-0.046C0.37,-0.056 0.389,-0.071 0.404,-0.09C0.419,-0.109 0.43,-0.132 0.437,-0.159C0.444,-0.186 0.448,-0.216 0.448,-0.249C0.448,-0.282 0.444,-0.312 0.437,-0.339C0.43,-0.366 0.419,-0.389 0.404,-0.408C0.389,-0.427 0.37,-0.442 0.348,-0.453C0.326,-0.463 0.3,-0.468 0.271,-0.468C0.241,-0.468 0.215,-0.463 0.193,-0.453C0.171,-0.442 0.152,-0.427 0.137,-0.408C0.122,-0.389 0.111,-0.366 0.104,-0.339C0.096,-0.312 0.092,-0.282 0.093,-0.249C0.092,-0.216 0.096,-0.186 0.104,-0.159C0.111,-0.132 0.122,-0.109 0.137,-0.09C0.152,-0.071 0.171,-0.056 0.193,-0.046C0.215,-0.036 0.241,-0.031 0.271,-0.031Z" style="fill:rgb(30,37,44);fill-rule:nonzero;"></path>
            </g>
            <g transform="matrix(12,0,0,12,15.612,0)">
                <path d="M0.409,-0.431C0.407,-0.429 0.405,-0.428 0.404,-0.427C0.402,-0.426 0.4,-0.425 0.398,-0.425C0.394,-0.425 0.39,-0.427 0.384,-0.432C0.378,-0.436 0.37,-0.441 0.361,-0.447C0.351,-0.452 0.339,-0.457 0.324,-0.461C0.31,-0.466 0.292,-0.468 0.272,-0.468C0.243,-0.468 0.217,-0.463 0.195,-0.453C0.173,-0.443 0.154,-0.428 0.139,-0.409C0.124,-0.39 0.113,-0.367 0.105,-0.34C0.096,-0.313 0.092,-0.283 0.093,-0.249C0.092,-0.214 0.097,-0.183 0.105,-0.156C0.113,-0.129 0.125,-0.106 0.14,-0.088C0.155,-0.069 0.173,-0.055 0.194,-0.046C0.215,-0.036 0.239,-0.031 0.265,-0.031C0.289,-0.031 0.309,-0.034 0.325,-0.04C0.341,-0.045 0.355,-0.051 0.365,-0.058C0.376,-0.065 0.384,-0.071 0.39,-0.077C0.396,-0.082 0.401,-0.085 0.405,-0.085C0.409,-0.085 0.413,-0.083 0.415,-0.08L0.428,-0.064C0.42,-0.054 0.411,-0.045 0.399,-0.036C0.387,-0.027 0.374,-0.02 0.36,-0.014C0.345,-0.007 0.329,-0.002 0.312,0.001C0.295,0.005 0.277,0.007 0.258,0.007C0.226,0.007 0.197,0.001 0.171,-0.011C0.145,-0.022 0.123,-0.039 0.104,-0.061C0.085,-0.083 0.07,-0.109 0.06,-0.141C0.049,-0.173 0.044,-0.209 0.044,-0.249C0.044,-0.287 0.049,-0.322 0.059,-0.353C0.069,-0.384 0.084,-0.411 0.103,-0.434C0.122,-0.457 0.145,-0.474 0.173,-0.487C0.201,-0.499 0.233,-0.506 0.269,-0.506C0.301,-0.506 0.33,-0.5 0.355,-0.49C0.38,-0.48 0.402,-0.466 0.421,-0.448L0.409,-0.431Z" style="fill:rgb(30,37,44);fill-rule:nonzero;"></path>
            </g>
            <g transform="matrix(12,0,0,12,21.072,0)">
                <path d="M0.117,-0.498L0.117,-0.18C0.117,-0.133 0.127,-0.096 0.149,-0.07C0.17,-0.043 0.202,-0.03 0.246,-0.03C0.278,-0.03 0.309,-0.038 0.337,-0.055C0.365,-0.071 0.39,-0.094 0.412,-0.124L0.412,-0.498L0.46,-0.498L0.46,-0L0.434,-0C0.424,-0 0.419,-0.004 0.419,-0.013L0.415,-0.087C0.392,-0.058 0.365,-0.035 0.335,-0.018C0.305,-0.001 0.271,0.008 0.234,0.008C0.206,0.008 0.182,0.004 0.162,-0.005C0.141,-0.014 0.124,-0.026 0.11,-0.043C0.096,-0.059 0.086,-0.079 0.079,-0.102C0.072,-0.125 0.069,-0.151 0.069,-0.18L0.069,-0.498L0.117,-0.498Z" style="fill:rgb(30,37,44);fill-rule:nonzero;"></path>
            </g>
            <g transform="matrix(12,0,0,12,27.564,0)">
                <path d="M0.081,-0L0.081,-0.498L0.107,-0.498C0.116,-0.498 0.121,-0.493 0.122,-0.485L0.127,-0.413C0.136,-0.427 0.147,-0.439 0.158,-0.451C0.169,-0.462 0.18,-0.472 0.193,-0.48C0.205,-0.488 0.219,-0.494 0.233,-0.499C0.247,-0.503 0.262,-0.506 0.278,-0.506C0.314,-0.506 0.343,-0.495 0.365,-0.474C0.386,-0.453 0.401,-0.423 0.409,-0.386C0.415,-0.406 0.423,-0.424 0.434,-0.439C0.445,-0.454 0.457,-0.466 0.471,-0.476C0.485,-0.486 0.5,-0.493 0.517,-0.498C0.533,-0.503 0.55,-0.506 0.568,-0.506C0.592,-0.506 0.614,-0.501 0.634,-0.493C0.654,-0.485 0.67,-0.473 0.684,-0.457C0.698,-0.441 0.709,-0.421 0.716,-0.398C0.723,-0.375 0.727,-0.348 0.727,-0.318L0.727,-0L0.679,-0L0.679,-0.318C0.679,-0.367 0.669,-0.404 0.648,-0.429C0.626,-0.455 0.596,-0.468 0.558,-0.468C0.54,-0.468 0.524,-0.464 0.508,-0.458C0.492,-0.452 0.478,-0.442 0.466,-0.43C0.454,-0.417 0.444,-0.402 0.437,-0.383C0.43,-0.364 0.426,-0.343 0.426,-0.318L0.426,-0L0.379,-0L0.379,-0.318C0.379,-0.366 0.369,-0.403 0.35,-0.429C0.33,-0.455 0.302,-0.468 0.265,-0.468C0.238,-0.468 0.213,-0.459 0.19,-0.443C0.167,-0.427 0.147,-0.405 0.129,-0.376L0.129,-0L0.081,-0Z" style="fill:rgb(30,37,44);fill-rule:nonzero;"></path>
            </g>
            <g transform="matrix(12,0,0,12,37.11,0)">
                <path d="M0.269,-0.506C0.297,-0.506 0.322,-0.501 0.346,-0.491C0.37,-0.481 0.391,-0.467 0.408,-0.449C0.426,-0.43 0.439,-0.407 0.449,-0.381C0.459,-0.354 0.464,-0.323 0.464,-0.288C0.464,-0.28 0.463,-0.275 0.461,-0.273C0.459,-0.27 0.455,-0.269 0.451,-0.269L0.091,-0.269L0.091,-0.259C0.091,-0.222 0.095,-0.189 0.104,-0.161C0.113,-0.132 0.125,-0.108 0.141,-0.089C0.157,-0.07 0.176,-0.056 0.199,-0.046C0.222,-0.036 0.247,-0.032 0.275,-0.032C0.3,-0.032 0.322,-0.034 0.34,-0.04C0.358,-0.045 0.374,-0.051 0.386,-0.058C0.399,-0.065 0.409,-0.071 0.416,-0.077C0.423,-0.082 0.429,-0.085 0.432,-0.085C0.436,-0.085 0.44,-0.083 0.442,-0.08L0.455,-0.064C0.447,-0.054 0.436,-0.045 0.423,-0.036C0.41,-0.027 0.395,-0.02 0.379,-0.014C0.363,-0.008 0.346,-0.003 0.327,0.001C0.309,0.005 0.29,0.007 0.272,0.007C0.238,0.007 0.206,0.001 0.179,-0.011C0.151,-0.023 0.127,-0.04 0.107,-0.063C0.087,-0.086 0.071,-0.113 0.06,-0.146C0.049,-0.179 0.044,-0.217 0.044,-0.259C0.044,-0.295 0.049,-0.328 0.059,-0.358C0.069,-0.388 0.084,-0.414 0.103,-0.436C0.122,-0.458 0.146,-0.475 0.174,-0.487C0.202,-0.499 0.233,-0.506 0.269,-0.506ZM0.269,-0.47C0.243,-0.47 0.22,-0.466 0.2,-0.458C0.18,-0.45 0.162,-0.439 0.147,-0.424C0.132,-0.409 0.12,-0.391 0.111,-0.37C0.102,-0.349 0.096,-0.325 0.093,-0.299L0.421,-0.299C0.421,-0.326 0.417,-0.35 0.41,-0.371C0.403,-0.392 0.392,-0.41 0.379,-0.425C0.366,-0.439 0.35,-0.45 0.331,-0.458C0.312,-0.466 0.292,-0.47 0.269,-0.47Z" style="fill:rgb(30,37,44);fill-rule:nonzero;"></path>
            </g>
            <g transform="matrix(12,0,0,12,43.242,0)">
                <path d="M0.081,-0L0.081,-0.498L0.107,-0.498C0.116,-0.498 0.121,-0.493 0.122,-0.485L0.127,-0.41C0.149,-0.439 0.176,-0.462 0.206,-0.479C0.236,-0.497 0.27,-0.506 0.307,-0.506C0.334,-0.506 0.358,-0.501 0.379,-0.493C0.4,-0.484 0.417,-0.471 0.431,-0.455C0.444,-0.439 0.455,-0.419 0.462,-0.396C0.468,-0.373 0.472,-0.347 0.472,-0.318L0.472,-0L0.425,-0L0.425,-0.318C0.424,-0.365 0.414,-0.401 0.393,-0.428C0.371,-0.454 0.338,-0.468 0.295,-0.468C0.262,-0.468 0.232,-0.459 0.204,-0.442C0.175,-0.425 0.151,-0.402 0.129,-0.373L0.129,-0L0.081,-0Z" style="fill:rgb(30,37,44);fill-rule:nonzero;"></path>
            </g>
            <g transform="matrix(12,0,0,12,49.734,0)">
                <path d="M0.217,0.008C0.183,0.008 0.157,-0.001 0.138,-0.02C0.119,-0.039 0.11,-0.068 0.11,-0.107L0.11,-0.447L0.039,-0.447C0.035,-0.447 0.032,-0.448 0.03,-0.45C0.027,-0.452 0.026,-0.454 0.026,-0.458L0.026,-0.477L0.111,-0.483L0.123,-0.661C0.123,-0.664 0.125,-0.666 0.127,-0.669C0.129,-0.671 0.132,-0.672 0.136,-0.672L0.158,-0.672L0.158,-0.482L0.315,-0.482L0.315,-0.447L0.158,-0.447L0.158,-0.109C0.158,-0.095 0.16,-0.084 0.163,-0.074C0.167,-0.064 0.172,-0.056 0.178,-0.05C0.184,-0.043 0.191,-0.039 0.2,-0.036C0.208,-0.033 0.217,-0.031 0.227,-0.031C0.239,-0.031 0.249,-0.033 0.258,-0.036C0.266,-0.04 0.274,-0.044 0.28,-0.048C0.286,-0.052 0.292,-0.056 0.296,-0.059C0.3,-0.063 0.303,-0.065 0.305,-0.065C0.308,-0.065 0.31,-0.063 0.313,-0.06L0.326,-0.039C0.313,-0.025 0.297,-0.013 0.278,-0.005C0.258,0.004 0.238,0.008 0.217,0.008Z" style="fill:rgb(30,37,44);fill-rule:nonzero;"></path>
            </g>
            <g transform="matrix(12,0,0,12,54.012,0)">
                <path d="M0.399,-0C0.389,-0 0.382,-0.005 0.38,-0.014L0.373,-0.078C0.359,-0.064 0.346,-0.052 0.332,-0.042C0.319,-0.031 0.305,-0.022 0.29,-0.015C0.275,-0.007 0.26,-0.002 0.243,0.002C0.226,0.006 0.207,0.008 0.187,0.008C0.169,0.008 0.153,0.006 0.137,0.001C0.121,-0.005 0.107,-0.012 0.095,-0.023C0.082,-0.033 0.072,-0.046 0.065,-0.062C0.057,-0.078 0.054,-0.098 0.054,-0.121C0.054,-0.141 0.059,-0.161 0.072,-0.179C0.084,-0.197 0.102,-0.213 0.128,-0.226C0.153,-0.239 0.186,-0.25 0.226,-0.258C0.266,-0.266 0.315,-0.271 0.371,-0.272L0.371,-0.324C0.371,-0.37 0.361,-0.405 0.341,-0.43C0.321,-0.455 0.292,-0.468 0.253,-0.468C0.229,-0.468 0.209,-0.464 0.192,-0.458C0.175,-0.451 0.161,-0.444 0.149,-0.436C0.137,-0.428 0.128,-0.42 0.121,-0.414C0.113,-0.407 0.107,-0.404 0.102,-0.404C0.095,-0.404 0.09,-0.407 0.087,-0.413L0.079,-0.427C0.105,-0.453 0.132,-0.473 0.161,-0.486C0.189,-0.499 0.222,-0.506 0.258,-0.506C0.285,-0.506 0.308,-0.502 0.328,-0.493C0.348,-0.485 0.365,-0.473 0.378,-0.457C0.391,-0.441 0.401,-0.422 0.408,-0.399C0.414,-0.377 0.418,-0.352 0.418,-0.324L0.418,-0L0.399,-0ZM0.199,-0.027C0.218,-0.027 0.236,-0.029 0.252,-0.033C0.268,-0.037 0.283,-0.043 0.297,-0.05C0.311,-0.058 0.324,-0.067 0.336,-0.077C0.347,-0.087 0.359,-0.098 0.371,-0.111L0.371,-0.24C0.324,-0.239 0.283,-0.235 0.249,-0.229C0.215,-0.223 0.186,-0.216 0.164,-0.206C0.142,-0.196 0.126,-0.184 0.115,-0.17C0.105,-0.156 0.099,-0.14 0.1,-0.123C0.099,-0.106 0.102,-0.091 0.108,-0.079C0.113,-0.067 0.121,-0.057 0.13,-0.049C0.139,-0.041 0.149,-0.036 0.161,-0.032C0.173,-0.028 0.186,-0.027 0.199,-0.027Z" style="fill:rgb(30,37,44);fill-rule:nonzero;"></path>
            </g>
            <g transform="matrix(12,0,0,12,59.85,0)">
                <path d="M0.217,0.008C0.183,0.008 0.157,-0.001 0.138,-0.02C0.119,-0.039 0.11,-0.068 0.11,-0.107L0.11,-0.447L0.039,-0.447C0.035,-0.447 0.032,-0.448 0.03,-0.45C0.027,-0.452 0.026,-0.454 0.026,-0.458L0.026,-0.477L0.111,-0.483L0.123,-0.661C0.123,-0.664 0.125,-0.666 0.127,-0.669C0.129,-0.671 0.132,-0.672 0.136,-0.672L0.158,-0.672L0.158,-0.482L0.315,-0.482L0.315,-0.447L0.158,-0.447L0.158,-0.109C0.158,-0.095 0.16,-0.084 0.163,-0.074C0.167,-0.064 0.172,-0.056 0.178,-0.05C0.184,-0.043 0.191,-0.039 0.2,-0.036C0.208,-0.033 0.217,-0.031 0.227,-0.031C0.239,-0.031 0.249,-0.033 0.258,-0.036C0.266,-0.04 0.274,-0.044 0.28,-0.048C0.286,-0.052 0.292,-0.056 0.296,-0.059C0.3,-0.063 0.303,-0.065 0.305,-0.065C0.308,-0.065 0.31,-0.063 0.313,-0.06L0.326,-0.039C0.313,-0.025 0.297,-0.013 0.278,-0.005C0.258,0.004 0.238,0.008 0.217,0.008Z" style="fill:rgb(30,37,44);fill-rule:nonzero;"></path>
            </g>
            <g transform="matrix(12,0,0,12,64.128,0)">
                <path d="M0.143,-0.498L0.143,-0L0.095,-0L0.095,-0.498L0.143,-0.498ZM0.164,-0.669C0.164,-0.663 0.162,-0.657 0.16,-0.652C0.157,-0.647 0.154,-0.643 0.15,-0.639C0.146,-0.635 0.141,-0.631 0.136,-0.629C0.131,-0.627 0.125,-0.626 0.119,-0.626C0.113,-0.626 0.107,-0.627 0.102,-0.629C0.097,-0.631 0.092,-0.635 0.088,-0.639C0.084,-0.643 0.081,-0.647 0.079,-0.652C0.076,-0.657 0.075,-0.663 0.075,-0.669C0.075,-0.675 0.076,-0.681 0.079,-0.686C0.081,-0.692 0.084,-0.697 0.088,-0.701C0.092,-0.705 0.097,-0.708 0.102,-0.71C0.107,-0.712 0.113,-0.714 0.119,-0.714C0.125,-0.714 0.131,-0.712 0.136,-0.71C0.141,-0.708 0.146,-0.705 0.15,-0.701C0.154,-0.697 0.157,-0.692 0.16,-0.686C0.162,-0.681 0.164,-0.675 0.164,-0.669Z" style="fill:rgb(30,37,44);fill-rule:nonzero;"></path>
            </g>
            <g transform="matrix(12,0,0,12,66.978,0)">
                <path d="M0.271,-0.506C0.306,-0.506 0.338,-0.499 0.366,-0.487C0.394,-0.475 0.418,-0.458 0.438,-0.436C0.457,-0.413 0.472,-0.386 0.482,-0.355C0.492,-0.323 0.497,-0.288 0.497,-0.249C0.497,-0.21 0.492,-0.175 0.482,-0.144C0.472,-0.112 0.457,-0.085 0.438,-0.063C0.418,-0.041 0.394,-0.024 0.366,-0.012C0.338,0.001 0.306,0.007 0.271,0.007C0.235,0.007 0.203,0.001 0.175,-0.012C0.147,-0.024 0.123,-0.041 0.103,-0.063C0.084,-0.085 0.069,-0.112 0.059,-0.144C0.049,-0.175 0.044,-0.21 0.044,-0.249C0.044,-0.288 0.049,-0.323 0.059,-0.355C0.069,-0.386 0.084,-0.413 0.103,-0.436C0.123,-0.458 0.147,-0.475 0.175,-0.487C0.203,-0.499 0.235,-0.506 0.271,-0.506ZM0.271,-0.031C0.3,-0.031 0.326,-0.036 0.348,-0.046C0.37,-0.056 0.389,-0.071 0.404,-0.09C0.419,-0.109 0.43,-0.132 0.437,-0.159C0.444,-0.186 0.448,-0.216 0.448,-0.249C0.448,-0.282 0.444,-0.312 0.437,-0.339C0.43,-0.366 0.419,-0.389 0.404,-0.408C0.389,-0.427 0.37,-0.442 0.348,-0.453C0.326,-0.463 0.3,-0.468 0.271,-0.468C0.241,-0.468 0.215,-0.463 0.193,-0.453C0.171,-0.442 0.152,-0.427 0.137,-0.408C0.122,-0.389 0.111,-0.366 0.104,-0.339C0.096,-0.312 0.092,-0.282 0.093,-0.249C0.092,-0.216 0.096,-0.186 0.104,-0.159C0.111,-0.132 0.122,-0.109 0.137,-0.09C0.152,-0.071 0.171,-0.056 0.193,-0.046C0.215,-0.036 0.241,-0.031 0.271,-0.031Z" style="fill:rgb(30,37,44);fill-rule:nonzero;"></path>
            </g>
            <g transform="matrix(12,0,0,12,73.47,0)">
                <path d="M0.081,-0L0.081,-0.498L0.107,-0.498C0.116,-0.498 0.121,-0.493 0.122,-0.485L0.127,-0.41C0.149,-0.439 0.176,-0.462 0.206,-0.479C0.236,-0.497 0.27,-0.506 0.307,-0.506C0.334,-0.506 0.358,-0.501 0.379,-0.493C0.4,-0.484 0.417,-0.471 0.431,-0.455C0.444,-0.439 0.455,-0.419 0.462,-0.396C0.468,-0.373 0.472,-0.347 0.472,-0.318L0.472,-0L0.425,-0L0.425,-0.318C0.424,-0.365 0.414,-0.401 0.393,-0.428C0.371,-0.454 0.338,-0.468 0.295,-0.468C0.262,-0.468 0.232,-0.459 0.204,-0.442C0.175,-0.425 0.151,-0.402 0.129,-0.373L0.129,-0L0.081,-0Z" style="fill:rgb(30,37,44);fill-rule:nonzero;"></path>
            </g>
        </g>
    </g>
    <defs>
        <linearGradient id="_Linear1" x1="0" y1="0" x2="1" y2="0" gradientUnits="userSpaceOnUse" gradientTransform="matrix(17.6074,56.3981,-56.3981,17.6074,46.8752,8.39081)"><stop offset="0" style="stop-color:rgb(149,219,255);stop-opacity:1"></stop><stop offset="1" style="stop-color:rgb(40,156,225);stop-opacity:1"></stop></linearGradient>
        <linearGradient id="_Linear2" x1="0" y1="0" x2="1" y2="0" gradientUnits="userSpaceOnUse" gradientTransform="matrix(47.2048,64.4158,-64.4158,47.2048,-10.4672,-16.0522)"><stop offset="0" style="stop-color:rgb(40,156,225);stop-opacity:1"></stop><stop offset="1" style="stop-color:rgb(0,106,176);stop-opacity:1"></stop></linearGradient>
        <linearGradient id="_Linear3" x1="0" y1="0" x2="1" y2="0" gradientUnits="userSpaceOnUse" gradientTransform="matrix(12.2574,0,0,12.2574,0.425015,6.5047)"><stop offset="0" style="stop-color:rgb(0,106,176);stop-opacity:0.5"></stop><stop offset="1" style="stop-color:rgb(0,106,176);stop-opacity:0"></stop></linearGradient>
    </defs>
</svg>
